<?xml version="1.0" encoding="UTF-8"?><svg preserveAspectRatio="none" id="Layer_4" xmlns="http://www.w3.org/2000/svg" viewBox="0 0 1920 1080"><defs><style>.cls-1{fill:#d370e9;}.cls-2{fill:#be9ae0;}.cls-3{fill:#e099ee;}</style></defs><polygon class="cls-2" points="-19 376 -19 -30.61 1938.5 -30.61 1938.5 376 968.68 475.71 480 529 -19 376"/><path class="cls-3" d="m1217.5,483.5c21.58-2.49,46.9-5.42,75.16-8.48C480.86,557.62,488.44,665.75-1.13,272.79c-6.6-3.87-13.21-7.78-19.87-11.79l-25.5,146.5c44.15,50.49,121.07,125.43,235,173,321.2,134.1,531.43-39.52,1029-97Z"/><path class="cls-1" d="m1934,254c-80.31,11.62-305.77,19.07-450.5,51.5-457.5,102.5-585.02,171.48-817.5,168.5-161.75-2.08-390.47-39.04-667.13-201.21,489.57,392.96,481.99,284.83,1293.79,202.22,167.11-18.15,437.13-41.45,645.84-11.52l-4.5-209.5Z"/></svg>